<svg xmlns="http://www.w3.org/2000/svg" viewBox="0 0 64 64"><path d="M37 43a1 1 0 0 1-2 0V41H20v9a2 2 0 0 0 2 2H42a2 2 0 0 0 2-2V41H37zM42 36H22a2 2 0 0 0-2 2v1H44V38A2 2 0 0 0 42 36z"/><path d="M32 13A19 19 0 0 0 13 32V53a4 4 0 0 0 4 4H47a4 4 0 0 0 4-4V32A19 19 0 0 0 32 13zM46 50a4 4 0 0 1-4 4H22a4 4 0 0 1-4-4V38a4 4 0 0 1 4-4H42a4 4 0 0 1 4 4zm0-17a1 1 0 0 1-1-1 13 13 0 0 0-26 0 1 1 0 0 1-2 0 15 15 0 0 1 30 0A1 1 0 0 1 46 33zM32 8a4 4 0 0 1 4 3.37 20.23 20.23 0 0 1 2 .5 6 6 0 0 0-12 0 17.85 17.85 0 0 1 2-.5A4 4 0 0 1 32 8zM7 40v1h4V37H10A3 3 0 0 0 7 40zM7 47a6 6 0 0 0 4 5.65V43H7zM54 37H53v4h4V40A3 3 0 0 0 54 37zM53 52.65A6 6 0 0 0 57 47V43H53z"/></svg>