<?xml version="1.0" encoding="utf-8"?>
<!-- Generator: Adobe Illustrator 25.1.0, SVG Export Plug-In . SVG Version: 6.00 Build 0)  -->
<svg version="1.1" id="Layer_1" xmlns="http://www.w3.org/2000/svg" xmlns:xlink="http://www.w3.org/1999/xlink" x="0px" y="0px"
	 viewBox="0 0 400 400" style="enable-background:new 0 0 400 400;" xml:space="preserve">
<style type="text/css">
	.st0{fill:#FFFFFF;}
</style>
<path class="st0" d="M308.1,277.6c-50,33.9-119.3,20.9-154.1-28.5c-34.8-49.4-23.6-119.1,25.2-154.7c3.1-2.3,4.4-6.4,3-10
	c-1.4-3.6-5-5.9-8.9-5.5c-24.6,2.6-48.2,11.5-68.4,25.7c-65.8,46.3-81.3,137.9-35.1,203.7c46.3,65.8,137.8,82.1,203.6,35.8
	c20.2-14.2,36.6-33.5,47.3-55.7c1.7-3.5,0.8-7.7-2.1-10.2C315.6,275.7,311.3,275.5,308.1,277.6z M283.2,59.1c0,1.8-0.7,3.5-1.9,4.7
	c-1.2,1.2-2.8,1.9-4.7,1.9h-16.4v16.4c0,3.6-3,6.6-6.6,6.6c-1.8,0-3.5-0.7-4.7-1.9c-1.2-1.2-1.9-2.8-1.9-4.7V65.7h-16.4
	c-3.6,0-6.6-2.9-6.6-6.6c0-1.8,0.7-3.5,1.9-4.7s2.8-1.9,4.7-1.9H247V36.1c0-3.6,3-6.6,6.6-6.6c1.8,0,3.5,0.7,4.7,1.9
	c1.2,1.2,1.9,2.8,1.9,4.7v16.4h16.4C280.3,52.5,283.2,55.4,283.2,59.1z"/>
<path class="st0" d="M259.5,163.1c0,1.8-0.7,3.5-1.9,4.7c-1.2,1.2-2.8,1.9-4.7,1.9h-16.4v16.4c0,3.6-3,6.6-6.6,6.6
	c-1.8,0-3.5-0.7-4.7-1.9c-1.2-1.2-1.9-2.8-1.9-4.7v-16.4h-16.4c-3.6,0-6.6-2.9-6.6-6.6c0-1.8,0.7-3.5,1.9-4.7
	c1.2-1.2,2.8-1.9,4.7-1.9h16.4V140c0-3.6,3-6.6,6.6-6.6c1.8,0,3.5,0.7,4.7,1.9s1.9,2.8,1.9,4.7v16.4h16.4
	C256.6,156.5,259.5,159.4,259.5,163.1z M356.8,133.4c0,1.8-0.7,3.5-1.9,4.7c-1.2,1.2-2.8,1.9-4.7,1.9h-16.4v16.4
	c0,3.6-3,6.6-6.6,6.6c-1.8,0-3.5-0.7-4.7-1.9c-1.2-1.2-1.9-2.8-1.9-4.7V140h-16.4c-3.6,0-6.6-3-6.6-6.6c0-1.8,0.7-3.5,1.9-4.7
	c1.2-1.2,2.8-1.9,4.7-1.9h16.4v-16.4c0-3.6,3-6.6,6.6-6.6c1.8,0,3.5,0.7,4.7,1.9c1.2,1.2,1.9,2.8,1.9,4.7v16.4h16.4
	C353.9,126.8,356.8,129.8,356.8,133.4z"/>
</svg>
