<?xml version="1.0" encoding="utf-8"?>
<!-- Generator: Adobe Illustrator 25.1.0, SVG Export Plug-In . SVG Version: 6.00 Build 0)  -->
<svg version="1.1" id="Layer_1" xmlns="http://www.w3.org/2000/svg" xmlns:xlink="http://www.w3.org/1999/xlink" x="0px" y="0px"
	 viewBox="0 0 64 64" style="enable-background:new 0 0 64 64;" xml:space="preserve">
<style type="text/css">
	.st0{fill:#181818;}
</style>
<circle class="st0" cx="32" cy="32" r="16"/>
<path class="st0" d="M43.1,20.5L16.2,34.6C16.1,33.8,16,32.9,16,32c0-8.8,7.1-16,16-16C36.1,16,40.1,17.6,43.1,20.5z"/>
<path class="st0" d="M32,12.6c-0.6,0-1-0.4-1-1V2c0-0.6,0.4-1,1-1s1,0.4,1,1v9.6C33,12.2,32.6,12.6,32,12.6z"/>
<path class="st0" d="M21.8,15.4c-0.4,0-0.7-0.2-0.9-0.5l-2.8-4.8c-0.3-0.5-0.1-1.1,0.4-1.4s1.1-0.1,1.4,0.4l2.8,4.8
	c0.3,0.5,0.1,1.1-0.4,1.4C22.2,15.3,22,15.4,21.8,15.4z"/>
<path class="st0" d="M14.4,22.8c-0.2,0-0.3,0-0.5-0.1l-8.4-4.8C5,17.6,4.9,17,5.2,16.5C5.4,16,6,15.9,6.5,16.1l8.4,4.8
	c0.5,0.3,0.6,0.9,0.4,1.4C15.1,22.6,14.7,22.8,14.4,22.8L14.4,22.8z"/>
<path class="st0" d="M11.6,33H6.1c-0.6,0-1-0.4-1-1s0.4-1,1-1h5.6c0.6,0,1,0.4,1,1S12.2,33,11.6,33z"/>
<path class="st0" d="M6,48c-0.6,0-1-0.4-1-1c0-0.4,0.2-0.7,0.5-0.9l8.4-4.8c0.5-0.3,1.1-0.1,1.4,0.4s0.1,1.1-0.4,1.4l-8.4,4.8
	C6.4,48,6.2,48,6,48z"/>
<path class="st0" d="M19,55.4c-0.6,0-1-0.4-1-1c0-0.2,0-0.3,0.1-0.5l2.8-4.8c0.3-0.5,0.9-0.6,1.4-0.4c0.5,0.3,0.6,0.9,0.4,1.4
	l-2.8,4.8C19.7,55.3,19.4,55.4,19,55.4z"/>
<path class="st0" d="M32,63c-0.6,0-1-0.4-1-1v-9.6c0-0.6,0.4-1,1-1s1,0.4,1,1V62C33,62.6,32.6,63,32,63z"/>
<path class="st0" d="M45,55.4c-0.4,0-0.7-0.2-0.9-0.5l-2.8-4.8c-0.3-0.5-0.1-1.1,0.4-1.4s1.1-0.1,1.4,0.4l2.8,4.8
	c0.3,0.5,0.1,1.1-0.4,1.4C45.3,55.4,45.1,55.4,45,55.4L45,55.4z"/>
<path class="st0" d="M58,48c-0.2,0-0.3,0-0.5-0.1L49.1,43c-0.5-0.3-0.6-0.9-0.4-1.4s0.9-0.6,1.4-0.4l8.4,4.8
	c0.5,0.3,0.6,0.9,0.4,1.4C58.7,47.8,58.3,48,58,48z"/>
<path class="st0" d="M57.9,33h-5.6c-0.6,0-1-0.4-1-1s0.4-1,1-1h5.6c0.6,0,1,0.4,1,1S58.5,33,57.9,33z"/>
<path class="st0" d="M49.6,22.8c-0.6,0-1-0.4-1-1c0-0.4,0.2-0.7,0.5-0.9l8.4-4.8c0.5-0.3,1.1-0.1,1.4,0.4c0.3,0.5,0.1,1.1-0.4,1.4
	l-8.4,4.8C50,22.8,49.8,22.8,49.6,22.8z"/>
<path class="st0" d="M42.2,15.4c-0.6,0-1-0.4-1-1c0-0.2,0-0.3,0.1-0.5l2.8-4.8c0.3-0.5,0.9-0.6,1.4-0.4s0.6,0.9,0.4,1.4l0,0L43,14.9
	C42.9,15.2,42.5,15.4,42.2,15.4z"/>
<path class="st0" d="M16.5,36c2.2,8.5,10.9,13.7,19.4,11.5C41.6,46,46,41.6,47.5,36H16.5z"/>
<path class="st0" d="M31,8v3.6c0,0.6,0.4,1,1,1s1-0.4,1-1V8H31z"/>
<path class="st0" d="M19.1,11.7l1.8,3.2c0.3,0.5,0.9,0.6,1.4,0.4c0.5-0.3,0.6-0.9,0.4-1.4l-1.8-3.2L19.1,11.7z"/>
<path class="st0" d="M10.7,20.9l3.2,1.8c0.5,0.3,1.1,0.1,1.4-0.4c0.3-0.5,0.1-1.1-0.4-1.4l-3.2-1.8L10.7,20.9z"/>
<path class="st0" d="M8,33h3.6c0.6,0,1-0.4,1-1s-0.4-1-1-1H8V33z"/>
<path class="st0" d="M11.7,44.9l3.2-1.8c0.5-0.3,0.6-0.9,0.4-1.4s-0.9-0.6-1.4-0.4l-3.2,1.8L11.7,44.9z"/>
<path class="st0" d="M20.9,53.3l1.8-3.2c0.3-0.5,0.1-1.1-0.4-1.4c-0.5-0.3-1.1-0.1-1.4,0.4l-1.8,3.2L20.9,53.3z"/>
<path class="st0" d="M33,56v-3.6c0-0.6-0.4-1-1-1s-1,0.4-1,1V56H33z"/>
<path class="st0" d="M44.9,52.3L43,49.1c-0.3-0.5-0.9-0.6-1.4-0.4s-0.6,0.9-0.4,1.4l1.8,3.2L44.9,52.3z"/>
<path class="st0" d="M53.3,43.1l-3.2-1.8c-0.5-0.3-1.1-0.1-1.4,0.4s-0.1,1.1,0.4,1.4l3.2,1.8L53.3,43.1z"/>
<path class="st0" d="M56,31h-3.6c-0.6,0-1,0.4-1,1s0.4,1,1,1H56V31z"/>
<path class="st0" d="M52.3,19.1L49.1,21c-0.5,0.3-0.6,0.9-0.4,1.4c0.3,0.5,0.9,0.6,1.4,0.4l3.2-1.8L52.3,19.1z"/>
<path class="st0" d="M43.1,10.7l-1.8,3.2c-0.3,0.5-0.1,1.1,0.4,1.4s1.1,0.1,1.4-0.4l1.8-3.2L43.1,10.7z"/>
</svg>
